<svg xmlns="http://www.w3.org/2000/svg" width="640" height="640" viewBox="0 0 640 640" version="1.1">
	<path d="M 473.360 147.476 C 448.681 151.955, 434.021 164.211, 429.935 183.781 C 429.195 187.322, 428.958 193.382, 429.311 199.694 L 429.882 209.889 425.546 218.694 C 421.129 227.665, 418.089 232.393, 418.032 230.382 C 418.014 229.768, 419.396 225.043, 421.103 219.882 C 423.808 211.701, 424.149 209.476, 423.764 202.500 C 422.953 187.826, 415.452 177.664, 399.859 170.117 C 395.181 167.852, 390.656 166, 389.802 166 C 386.972 166, 383.556 179.109, 383.538 190.043 C 383.523 198.799, 383.789 200.129, 386.761 206.166 C 390.426 213.610, 396.118 219.356, 404.532 224.105 L 410.228 227.320 409.603 231.877 C 408.664 238.727, 404.863 243.704, 398.177 246.839 C 392.989 249.271, 391.466 249.495, 380.500 249.447 C 369.481 249.398, 366.784 248.968, 347.500 244.179 C 335.950 241.311, 325.488 238.739, 324.250 238.463 L 322 237.962 322 215.481 C 322 203.116, 322.275 193, 322.611 193 C 322.948 193, 328.910 197.126, 335.861 202.169 C 381.685 235.413, 391.058 242, 392.535 242 C 394.562 242, 400.119 238.822, 399.760 237.868 C 399.441 237.020, 321.020 179.970, 319.186 179.252 C 318.464 178.969, 316.889 179.191, 315.686 179.747 C 314.484 180.302, 289.875 197.986, 261 219.045 C 232.125 240.104, 200.512 263.134, 190.750 270.222 C 178.201 279.334, 173 283.682, 173 285.064 C 173 286.139, 184.888 323.352, 199.418 367.759 C 213.947 412.167, 226.127 449.510, 226.483 450.744 C 228.089 456.307, 222.743 456, 318.048 456 L 405.954 456 407.374 453.750 C 408.699 451.648, 416.072 429.367, 448.984 328 C 456.217 305.725, 462.335 286.884, 462.581 286.131 C 462.827 285.379, 461.520 283.354, 459.676 281.631 C 455.887 278.092, 421.919 253.272, 419.847 252.528 C 419.106 252.263, 417.030 253.273, 415.233 254.773 L 411.966 257.500 429.922 270.500 C 439.798 277.650, 447.568 283.765, 447.189 284.090 C 445.454 285.574, 403.787 297.988, 402.712 297.341 C 400.596 296.065, 340 251.868, 340 251.600 C 340 251.459, 345.962 252.875, 353.250 254.746 C 382.246 262.192, 399.491 259.887, 415.098 246.479 C 418.069 243.927, 422.409 240.708, 424.743 239.328 L 428.986 236.818 433.449 240.746 C 435.903 242.906, 440.744 246.210, 444.206 248.087 C 450.233 251.355, 450.945 251.500, 461 251.497 C 470.952 251.494, 471.852 251.317, 478.241 248.093 C 484.519 244.924, 495.038 236.984, 495.862 234.791 C 496.417 233.315, 490.232 227.378, 483 222.444 C 467.522 211.883, 452.329 211.186, 438.452 220.400 L 433.146 223.924 435.721 218.212 C 437.138 215.070, 438.356 212.412, 438.427 212.304 C 438.499 212.197, 442.124 211.372, 446.483 210.472 C 466.175 206.404, 479.110 196.224, 484.406 180.625 C 486.908 173.256, 488.259 161.324, 487.506 153.250 L 486.829 146 483.665 146.090 C 481.924 146.140, 477.287 146.764, 473.360 147.476 M 426.106 150.801 C 424.611 153.596, 426.912 156.480, 429.884 155.537 C 431.582 154.998, 432.042 154.190, 431.808 152.164 C 431.422 148.822, 427.648 147.920, 426.106 150.801 M 467.500 157.892 C 449.266 163.209, 439.509 173.785, 438.239 189.611 C 437.957 193.125, 437.911 196, 438.137 196 C 438.363 196, 440.473 193.356, 442.826 190.125 C 447.093 184.266, 451.754 179.954, 459.441 174.754 C 465.305 170.788, 465.741 171.352, 460.986 176.750 C 457.066 181.200, 447.836 194.589, 445.063 199.849 C 443.855 202.138, 443.909 202.180, 447.162 201.510 C 448.998 201.131, 453.565 199.433, 457.310 197.735 C 470.423 191.792, 477.336 180.800, 478.684 163.750 L 479.296 156 476.398 156.071 C 474.804 156.110, 470.800 156.930, 467.500 157.892 M 418.895 163.359 C 413.298 166.133, 416.822 175.519, 422.677 173.432 C 426.344 172.125, 427.642 169.718, 426.462 166.412 C 425.265 163.062, 422.083 161.778, 418.895 163.359 M 393.281 179.704 C 392.851 181.242, 392.528 186.100, 392.562 190.500 C 392.610 196.594, 393.126 199.464, 394.728 202.545 C 396.894 206.710, 405.100 215, 407.057 215 C 408.439 215, 407.551 210.628, 404.519 202.500 C 403.288 199.200, 401.956 195.600, 401.559 194.500 C 400.265 190.913, 409.421 201.507, 412 206.581 L 414.500 211.500 414.811 206.003 C 414.982 202.980, 414.579 198.568, 413.916 196.200 C 412.380 190.713, 405.698 183.242, 399.129 179.667 L 394.061 176.908 393.281 179.704 M 306.925 200.750 C 292.013 217.001, 274.714 240.746, 260.843 264 C 249.425 283.141, 247.693 286.273, 248.750 285.871 C 249.286 285.667, 263.946 275.150, 281.327 262.500 L 312.929 239.500 312.964 217.250 C 312.984 205.012, 312.820 195, 312.600 195 C 312.381 195, 309.827 197.588, 306.925 200.750 M 491.309 198.636 C 490.641 200.377, 491.943 203.148, 493.705 203.735 C 494.290 203.930, 495.494 203.363, 496.382 202.475 C 497.606 201.251, 497.746 200.395, 496.963 198.931 C 495.702 196.575, 492.171 196.391, 491.309 198.636 M 477.200 204.200 C 474.395 207.005, 476.508 212, 480.500 212 C 483.180 212, 485 210.180, 485 207.500 C 485 204.820, 483.180 203, 480.500 203 C 479.345 203, 477.860 203.540, 477.200 204.200 M 253.170 204.874 C 252.414 205.353, 251.982 206.966, 252.170 208.609 C 252.452 211.081, 252.934 211.500, 255.500 211.500 C 258.066 211.500, 258.548 211.081, 258.830 208.609 C 259.142 205.875, 257.800 204.031, 255.500 204.031 C 254.950 204.031, 253.901 204.410, 253.170 204.874 M 235.986 213.810 C 231.651 217.321, 234.482 225, 240.111 225 C 242.786 225, 246 221.453, 246 218.500 C 246 215.547, 242.786 212, 240.111 212 C 239.072 212, 237.215 212.815, 235.986 213.810 M 236.592 247.891 C 210.329 267.082, 188.827 283.169, 188.808 283.641 C 188.790 284.114, 192.088 285.534, 196.138 286.798 C 200.187 288.062, 209.675 291.051, 217.222 293.439 L 230.944 297.782 238.161 285.141 C 256.015 253.870, 267.378 235.938, 278.646 221.250 C 282.127 216.713, 284.833 213, 284.659 213 C 284.484 213, 262.854 228.701, 236.592 247.891 M 450.942 223.889 C 449.534 224.348, 447.284 225.316, 445.942 226.039 C 443.634 227.282, 443.883 227.421, 450.500 228.579 C 454.350 229.252, 459.300 230.632, 461.500 231.645 L 465.500 233.487 453.831 233.994 C 447.414 234.272, 441.859 234.805, 441.487 235.178 C 440.717 235.950, 447.005 240.068, 451.500 241.736 C 459.899 244.852, 469.255 243.473, 478.825 237.708 L 484.149 234.500 481.012 231.875 C 474.386 226.331, 468.053 223.695, 460.567 223.365 C 456.680 223.193, 452.349 223.429, 450.942 223.889 M 346.655 225.829 C 344.112 228.639, 344.521 233.640, 347.451 235.560 C 353.644 239.618, 360.251 231.251, 355 226 C 352.504 223.504, 348.827 223.429, 346.655 225.829 M 223.155 227.604 C 221.970 228.434, 221 229.737, 221 230.500 C 221 231.263, 221.970 232.566, 223.155 233.396 C 225.954 235.356, 229 233.847, 229 230.500 C 229 227.153, 225.954 225.644, 223.155 227.604 M 365.040 235.452 C 362.383 238.653, 366.285 243.570, 369.750 241.388 C 373.212 239.207, 371.979 234, 368 234 C 367.035 234, 365.703 234.653, 365.040 235.452 M 302.500 258.167 C 294.250 264.191, 276.587 277.041, 263.250 286.724 C 249.912 296.407, 239 304.758, 239 305.282 C 239 305.806, 245.772 326.882, 254.049 352.117 L 269.099 398 317.799 397.971 L 366.500 397.943 381.833 351.387 C 390.266 325.782, 397.016 304.698, 396.833 304.534 C 395.481 303.321, 320.329 248.903, 318.500 247.812 C 317.950 247.484, 310.750 252.144, 302.500 258.167 M 242.082 251.401 C 239.306 254.746, 244.254 259.694, 247.599 256.918 C 248.425 256.232, 248.966 254.508, 248.801 253.086 C 248.575 251.147, 247.853 250.425, 245.914 250.199 C 244.492 250.034, 242.768 250.575, 242.082 251.401 M 231 261.778 C 226.027 263.380, 224.519 268.519, 228 272 C 232.098 276.098, 238 273.321, 238 267.294 C 238 263.329, 234.571 260.627, 231 261.778 M 400.571 265.571 C 398.450 267.693, 398.585 272.315, 400.829 274.345 C 404.826 277.962, 411 275.168, 411 269.743 C 411 266.337, 408.558 264, 405 264 C 403.429 264, 401.436 264.707, 400.571 265.571 M 383.571 267.571 C 381.613 269.530, 381.569 271.397, 383.445 272.954 C 385.747 274.865, 389.451 273.844, 389.827 271.195 C 390.454 266.772, 386.602 264.541, 383.571 267.571 M 186 293.453 C 186 293.667, 188.231 297.705, 190.958 302.427 C 197.978 314.583, 210.733 333.115, 218.539 342.500 C 227.367 353.113, 253.406 381.828, 253.850 381.439 C 254.043 381.270, 248.643 364.439, 241.850 344.035 L 229.500 306.938 209 300.415 C 197.725 296.826, 187.938 293.704, 187.250 293.477 C 186.563 293.249, 186 293.238, 186 293.453 M 428 299.775 C 416.725 303.385, 407.378 306.422, 407.228 306.525 C 407.078 306.627, 408.073 317.914, 409.439 331.605 C 412.715 364.451, 414.365 391.863, 413.583 400.441 C 413.235 404.259, 413.147 407.184, 413.388 406.941 C 413.628 406.699, 421.962 381.682, 431.906 351.348 C 441.851 321.014, 450.264 295.477, 450.601 294.598 C 451.477 292.315, 450.856 292.458, 428 299.775 M 387.053 364.172 C 378.366 390.676, 374.892 402.573, 375.553 403.548 C 376.074 404.317, 381.885 412.621, 388.467 422.002 C 397.826 435.341, 400.583 438.656, 401.116 437.214 C 402.799 432.665, 404.312 410.762, 404.239 392 C 404.174 375.386, 400.892 327.509, 399.744 326.423 C 399.610 326.297, 393.899 343.284, 387.053 364.172 M 419.073 328.635 C 416.544 331.849, 416.484 333.182, 418.750 335.802 C 421.462 338.939, 424.324 339.320, 427.343 336.945 C 430.532 334.437, 430.799 330.799, 428 328 C 425.209 325.209, 421.563 325.468, 419.073 328.635 M 196.278 329.137 C 196.593 330.038, 205.025 355.624, 215.017 385.996 C 225.008 416.368, 233.545 440.831, 233.987 440.359 C 235.389 438.863, 259.194 404.657, 259.638 403.502 C 260.039 402.457, 252.295 393.543, 226.131 364.932 C 219.878 358.095, 210.913 347.325, 206.209 341 C 196.704 328.219, 195.422 326.688, 196.278 329.137 M 417.832 349.470 C 416.361 352.697, 418.295 355.221, 421.914 354.801 C 423.739 354.588, 424.596 353.822, 424.827 352.195 C 425.532 347.222, 419.862 345.014, 417.832 349.470 M 182.040 358.452 C 179.383 361.653, 183.285 366.570, 186.750 364.388 C 190.212 362.207, 188.979 357, 185 357 C 184.035 357, 182.703 357.653, 182.040 358.452 M 448.200 358.200 C 445.688 360.712, 447.558 365, 451.165 365 C 452.135 365, 453.411 364.100, 454 363 C 456.161 358.963, 451.387 355.013, 448.200 358.200 M 219.843 372.952 C 217.936 374.517, 217.706 375.212, 218.609 376.687 C 219.268 377.764, 220.892 378.500, 222.609 378.500 C 225.002 378.500, 225.553 378.037, 225.810 375.817 C 226.260 371.921, 223.004 370.358, 219.843 372.952 M 184.956 374.553 C 183.032 376.871, 183.357 382.057, 185.524 383.642 C 188.142 385.555, 192.393 385.329, 194.345 383.171 C 196.531 380.756, 196.448 376.716, 194.171 374.655 C 191.865 372.568, 186.651 372.510, 184.956 374.553 M 441.571 374.571 C 439.450 376.693, 439.585 381.315, 441.829 383.345 C 445.826 386.962, 452 384.168, 452 378.743 C 452 375.337, 449.558 373, 446 373 C 444.429 373, 442.436 373.707, 441.571 374.571 M 227.655 387.829 C 225.770 389.912, 225.520 393.234, 227.035 396.066 C 228.325 398.476, 234.156 398.701, 236.429 396.429 C 238.550 394.307, 238.415 389.685, 236.171 387.655 C 233.756 385.469, 229.716 385.552, 227.655 387.829 M 194.046 393.445 C 193.386 394.240, 192.994 395.927, 193.173 397.195 C 193.428 398.995, 194.134 399.500, 196.391 399.500 C 200.415 399.500, 202.003 396.766, 199.553 394.059 C 197.361 391.636, 195.701 391.451, 194.046 393.445 M 436.544 393.344 C 435.189 394.335, 434.881 395.388, 435.372 397.344 C 435.905 399.471, 436.628 400, 439 400 C 441.372 400, 442.095 399.471, 442.628 397.344 C 443.119 395.388, 442.811 394.335, 441.456 393.344 C 440.445 392.605, 439.340 392, 439 392 C 438.660 392, 437.555 392.605, 436.544 393.344 M 255.317 425.750 C 248.143 436.063, 242.405 444.657, 242.568 444.848 C 243.853 446.365, 284.459 434.367, 303 426.992 C 312.592 423.176, 342.801 409.804, 345.851 408.024 C 346.928 407.395, 333.782 407.050, 307.930 407.030 L 268.360 407 255.317 425.750 M 362.347 410.569 C 359.513 411.838, 348.236 416.923, 337.288 421.870 C 313.394 432.666, 300.350 437.949, 285 443.048 L 273.500 446.868 334.335 446.934 L 395.170 447 391.739 442.250 C 389.851 439.637, 383.914 431.200, 378.545 423.500 C 373.175 415.800, 368.494 409.222, 368.141 408.881 C 367.789 408.541, 365.181 409.300, 362.347 410.569 M 344.455 428.455 C 343.105 429.805, 342 431.830, 342 432.955 C 342 435.766, 345.477 439, 348.500 439 C 351.523 439, 355 435.766, 355 432.955 C 355 430.530, 350.766 426, 348.500 426 C 347.625 426, 345.805 427.105, 344.455 428.455 M 327.200 434.200 C 324.013 437.387, 327.963 442.161, 332 440 C 335.406 438.177, 333.927 433, 330 433 C 329.120 433, 327.860 433.540, 327.200 434.200 M 313.571 464.571 C 312.707 465.436, 312 467.429, 312 469 C 312 472.617, 314.350 475, 317.916 475 C 321.309 475, 324 472.232, 324 468.743 C 324 465.337, 321.558 463, 318 463 C 316.429 463, 314.436 463.707, 313.571 464.571 M 296.040 465.452 C 293.383 468.653, 297.285 473.570, 300.750 471.388 C 304.212 469.207, 302.979 464, 299 464 C 298.035 464, 296.703 464.653, 296.040 465.452 M 333.571 465.571 C 331.662 467.481, 331.627 468.108, 333.306 470.404 C 335.170 472.954, 339.405 472.168, 339.827 469.195 C 340.454 464.772, 336.602 462.541, 333.571 465.571" stroke="none" fill="#6BC06D" fill-rule="evenodd"/>
</svg>